<?xml version="1.0" encoding="UTF-8" standalone="no"?>
<svg
   width="100%"
   height="100%"
   viewBox="0 0 180 226"
   version="1.1"
   xml:space="preserve"
   style="fill-rule:evenodd;clip-rule:evenodd;stroke-linejoin:round;"
   id="svg13"
   sodipodi:docname="brew-logo-white-alt.svg"
   inkscape:version="1.1.2 (0a00cf5339, 2022-02-04, custom)"
   xmlns:inkscape="http://www.inkscape.org/namespaces/inkscape"
   xmlns:sodipodi="http://sodipodi.sourceforge.net/DTD/sodipodi-0.dtd"
   xmlns="http://www.w3.org/2000/svg"
   xmlns:svg="http://www.w3.org/2000/svg"
   xmlns:serif="http://www.serif.com/"><defs
   id="defs17" /><sodipodi:namedview
   id="namedview15"
   pagecolor="#505050"
   bordercolor="#ffffff"
   borderopacity="1"
   inkscape:pageshadow="0"
   inkscape:pageopacity="0"
   inkscape:pagecheckerboard="1"
   showgrid="false"
   inkscape:zoom="3.8628319"
   inkscape:cx="89.959908"
   inkscape:cy="113.12944"
   inkscape:window-width="3840"
   inkscape:window-height="1531"
   inkscape:window-x="0"
   inkscape:window-y="32"
   inkscape:window-maximized="1"
   inkscape:current-layer="Group" />
    <g
   id="Group"
   transform="matrix(1,0,0,1,5.782,-41.586)"
   style="fill:#ffffff">
        <g
   transform="matrix(1,0,0,1,4,112)"
   id="g7"
   style="fill:#ffffff">
            <g
   id="Shape"><path
     id="path1885"
     style="color:#000000;clip-rule:nonzero;fill-rule:nonzero;stroke-width:4.79px;stroke-linejoin:miter;-inkscape-stroke:none"
     d="M 19.912109 71.822266 C 19.912109 71.822266 20.170031 192.36116 20.207031 210.03516 C 20.210031 211.39816 20.906641 212.66739 22.056641 213.40039 C 27.268641 216.41839 43.977547 222.15039 79.060547 222.15039 C 114.88555 222.15039 130.89938 214.47672 135.48438 211.01172 C 136.39538 210.25572 136.92383 209.13322 136.92383 207.94922 C 136.94283 204.12422 136.94141 195.26139 136.94141 190.02539 C 136.94141 188.95039 137.37458 187.92192 138.14258 187.16992 C 138.91058 186.41692 139.95039 186.00534 141.02539 186.02734 C 145.42639 186.08934 150.69984 186.09798 155.71484 186.08398 C 160.49984 186.10098 165.09342 184.21294 168.48242 180.83594 C 171.87242 177.45894 173.77734 172.87094 173.77734 168.08594 C 173.77934 149.81294 173.7793 121.57691 173.7793 103.25391 C 173.7793 98.479906 171.88381 93.901391 168.50781 90.525391 C 165.13181 87.149391 160.5533 85.253906 155.7793 85.253906 L 140.94141 85.253906 C 138.73241 85.253906 136.94141 83.462906 136.94141 81.253906 L 136.94141 71.822266 L 125.70117 71.822266 C 125.70117 73.794432 125.7023 176.77148 125.69141 193.05664 C 125.69141 194.41064 125.00228 195.67225 123.86328 196.40625 C 119.09328 199.28925 104.84755 206.28516 78.935547 206.28516 C 53.194547 206.28516 38.512172 200.52723 33.451172 198.11523 C 32.212172 197.40123 31.449219 196.07944 31.449219 194.64844 L 31.449219 71.822266 L 19.912109 71.822266 z M 141.94141 101.27734 L 154.67969 101.27734 C 156.00569 101.27734 157.2788 101.80519 158.2168 102.74219 C 159.1538 103.68019 159.67969 104.95134 159.67969 106.27734 L 159.67969 164.46289 C 159.67969 165.78889 159.1538 167.06005 158.2168 167.99805 C 157.2788 168.93505 156.00569 169.46289 154.67969 169.46289 L 141.94141 169.46289 C 140.61541 169.46289 139.34425 168.93505 138.40625 167.99805 C 137.46925 167.06005 136.94141 165.78889 136.94141 164.46289 L 136.94141 106.27734 C 136.94141 104.95134 137.46925 103.68019 138.40625 102.74219 C 139.34425 101.80519 140.61541 101.27734 141.94141 101.27734 z "
     transform="translate(-9.782,-70.414)" /><path
     style="color:#000000;clip-rule:nonzero;fill-rule:nonzero;stroke-linejoin:miter;-inkscape-stroke:none"
     d="M 10.130859,-0.98632813 A 2.3952395,2.3952395 0 0 0 7.734375,1.4140625 c 0,0 0.257923,120.5394175 0.2949219,138.2128875 0.00479,2.17621 1.1223439,4.20825 2.9589841,5.37891 a 2.3952395,2.3952395 0 0 0 0.08594,0.0547 c 5.994891,3.47133 22.861243,9.07226 58.205078,9.07226 36.166983,0 52.499153,-7.56824 57.867183,-11.625 a 2.3952395,2.3952395 0 0 0 0.0859,-0.0664 c 1.45784,-1.2098 2.30274,-3.01158 2.30274,-4.90625 0.019,-3.84808 0.0195,-12.69183 0.0195,-17.92383 0,-0.43188 0.17401,-0.84254 0.48242,-1.14453 a 2.3952395,2.3952395 0 0 0 0,-0.002 c 0.30803,-0.30201 0.72287,-0.4659 1.15625,-0.45703 a 2.3952395,2.3952395 0 0 0 0.0156,0 c 4.41998,0.0623 9.69708,0.0706 14.71485,0.0566 5.42042,0.0193 10.62722,-2.11933 14.46679,-5.94531 3.84058,-3.82584 6,-9.02661 6,-14.447265 0.002,-18.273252 0.002,-46.50905 0.002,-64.832031 0,-5.408113 -2.1482,-10.597417 -5.97266,-14.421875 -3.82446,-3.824458 -9.01376,-5.97461 -14.42187,-5.97461 h -14.83789 c -0.91447,0 -1.60547,-0.689052 -1.60547,-1.603515 V 1.4082031 a 2.3952395,2.3952395 0 0 0 -2.39453,-2.39453123 z M 12.53125,3.8046875 h 112.23438 v 7.0351565 c 0,3.503532 2.89099,6.394531 6.39453,6.394531 h 14.83789 c 4.13987,0 8.10762,1.642777 11.03515,4.570312 2.92754,2.927536 4.57032,6.895279 4.57032,11.035157 0,18.322981 4e-5,46.559319 -0.002,64.832031 0,4.149335 -1.65237,8.124585 -4.59179,11.052735 -2.93842,2.92801 -6.91879,4.56552 -11.06836,4.55078 a 2.3952395,2.3952395 0 0 0 -0.0156,0 c -5.0021,0.014 -10.25827,0.005 -14.63281,-0.0566 -1.71571,-0.0351 -3.37965,0.62147 -4.60742,1.82422 -1.22759,1.20201 -1.91993,2.85024 -1.91992,4.56836 -1e-5,5.23599 -6.3e-4,14.10549 -0.0195,17.91211 a 2.3952395,2.3952395 0 0 0 0,0.0117 c 0,0.46259 -0.20962,0.8918 -0.55859,1.19336 -3.87156,2.8972 -19.54919,10.61328 -54.908203,10.61328 -34.70498,0 -51.23297,-5.81649 -55.728516,-8.39453 -0.451085,-0.29706 -0.729276,-0.78842 -0.730468,-1.33008 C 12.783954,122.24965 12.539914,7.8526281 12.53125,3.8046875 Z M 132.16016,28.46875 c -1.96057,0 -3.84226,0.779286 -5.22852,2.164062 a 2.3952395,2.3952395 0 0 0 -0.002,0.002 c -1.38478,1.386254 -2.16407,3.267945 -2.16406,5.228515 v 58.185547 c -1e-5,1.960571 0.77928,3.842261 2.16406,5.228516 a 2.3952395,2.3952395 0 0 0 0.002,0.002 c 1.38626,1.384773 3.26795,2.164063 5.22852,2.164063 h 12.73828 c 1.96057,0 3.84226,-0.77929 5.22851,-2.164063 a 2.3952395,2.3952395 0 0 0 0.002,-0.002 c 1.38477,-1.386255 2.16406,-3.267945 2.16406,-5.228516 V 35.863281 c 0,-1.96057 -0.77929,-3.842261 -2.16406,-5.228515 a 2.3952395,2.3952395 0 0 0 -0.002,-0.002 c -1.38625,-1.384776 -3.26794,-2.164062 -5.22851,-2.164062 z m 0,4.791016 h 12.73828 c 0.6908,0 1.35218,0.273328 1.84179,0.761718 0.48923,0.489744 0.76368,1.150371 0.76368,1.841797 v 58.185547 c 0,0.690543 -0.27368,1.352239 -0.76172,1.841797 -0.48975,0.489222 -1.15233,0.763672 -1.84375,0.763672 h -12.73828 c -0.69055,0 -1.35224,-0.273672 -1.8418,-0.761719 l -0.002,-0.002 c -0.48805,-0.489558 -0.76172,-1.151254 -0.76172,-1.841797 V 35.863281 c 0,-0.691426 0.27445,-1.352053 0.76367,-1.841797 0.48961,-0.48839 1.151,-0.761718 1.8418,-0.761718 z"
     id="path1887" /></g>
            
            <g
   id="Path1"
   serif:id="Path"
   transform="matrix(1,0,0,0.849312,0,21.0375)"
   style="fill:#ffffff">
                <path
   d="M35.521,0.249L35.521,113.065"
   style="fill:#ffffff;stroke:#ffffff;stroke-width:11.96px;stroke-linecap:round;stroke-linejoin:miter;stroke-opacity:1"
   id="path4" />
            </g>
        </g>
        <g
   id="Path2"
   serif:id="Path"
   transform="matrix(1,0,0,1,-5.782,-3.414)"
   style="fill:#ffffff">
            <g
   id="path9"><path
     style="color:#000000;clip-rule:nonzero;fill-rule:nonzero;stroke-width:4.79px;stroke-linecap:round;stroke-linejoin:miter;-inkscape-stroke:none"
     d="m 43.739,73.505 c 2.473,-4.998 7.628,-8.088 13.574,-8.44 7.167,-0.424 11.167,4.197 11.167,3.787 0,-11.012 8.928,-19.938 19.941,-19.938 11.014,0 19.936,8.926 19.936,19.938 0,0.113 4.241,-4.967 10.965,-4.783 7.924,0.217 14.355,6.427 14.355,14.355 0,4.103 -4.236,10.728 -4.236,10.728 2.198,-1.24 4.729,-1.957 7.432,-1.957 3.638,0 6.978,1.283 9.59,3.421 3.48,2.777 5.71,7.054 5.708,11.851 0,7.666 -5.691,14.001 -13.079,15.012 -1.673,0.237 -3.314,0.663 -4.891,1.27 -4.391,1.655 -8.881,3.027 -13.417,4.159 -0.226,2.236 -0.892,4.342 -1.909,6.231 -1.84,3.452 -2.665,7.355 -2.38,11.257 -0.002,0.236 0.007,1.472 0.007,1.71 0,4.956 -4.016,7.972 -8.976,7.972 -4.953,0 -8.971,-4.015 -8.971,-8.972 0,-2 -1.177,-4.388 -3.11,-5.587 -0.448,-0.271 -0.881,-0.562 -1.3,-0.873 -2.557,-1.863 -4.567,-4.434 -5.746,-7.424 -25.55,0.846 -48.861,-3.64 -60.612,-6.809 -3.021,-0.856 -6.081,-1.567 -9.171,-2.13 -3.016,-0.598 -5.722,-2.074 -7.83,-4.151 -2.904,-2.761 -4.713,-6.662 -4.713,-10.985 0,-8.245 6.581,-14.952 14.781,-15.149 -6.472,-5.418 0.795,-18.648 11.537,-19.148 5.566,-0.259 11.348,4.655 11.348,4.655 z"
     id="path1836" /><path
     style="color:#000000;clip-rule:nonzero;fill-rule:nonzero;stroke-linecap:round;stroke-linejoin:miter;-inkscape-stroke:none"
     d="m 88.421875,46.519531 c -10.905834,0 -19.989162,7.883987 -21.923828,18.240235 -2.175028,-1.169358 -5.330291,-2.322334 -9.326172,-2.085938 -5.723587,0.338833 -10.817617,3.089966 -14.013672,7.498047 -2.11332,-1.58771 -5.775127,-3.952335 -10.878906,-3.714844 -6.325989,0.294451 -11.461408,4.232679 -14.183594,8.919922 -1.361093,2.343622 -2.152152,4.918334 -2.074219,7.486328 0.03463,1.14097 0.338807,2.270792 0.771485,3.351563 -7.5244625,1.978269 -13.1152346,8.805096 -13.1152346,16.931636 0,4.9827 2.0928439,9.50903 5.4433594,12.70313 2.4318282,2.39083 5.5505412,4.09345 9.0292972,4.7832 a 2.3952395,2.3952395 0 0 0 0.03711,0.006 c 3.014489,0.54924 5.999723,1.24294 8.947266,2.07813 a 2.3952395,2.3952395 0 0 0 0.0293,0.008 c 11.739722,3.16596 34.576516,7.50998 59.859375,6.87109 1.37867,2.73888 3.248851,5.18926 5.705079,6.98047 0.475462,0.35237 0.967683,0.68436 1.476562,0.99219 l -0.02344,-0.0137 c 1.092584,0.67771 1.978515,2.49042 1.978515,3.55078 0,6.2512 5.117954,11.36719 11.365234,11.36719 2.96544,0 5.76993,-0.89648 7.89453,-2.69336 2.1246,-1.79689 3.47656,-4.54892 3.47656,-7.67383 0,-0.29838 -0.007,-1.5852 -0.006,-1.68945 a 2.3952395,2.3952395 0 0 0 -0.008,-0.19532 c -0.25187,-3.44846 0.47715,-6.89621 2.10157,-9.94726 l 0.004,-0.008 c 0.90542,-1.68357 1.47789,-3.55154 1.84766,-5.49023 4.11194,-1.07595 8.2055,-2.27621 12.20898,-3.78516 a 2.3952395,2.3952395 0 0 0 0.0156,-0.006 c 1.40407,-0.54045 2.86581,-0.92089 4.35547,-1.13282 l 0.0117,-0.002 c 8.54939,-1.17593 15.13769,-8.53455 15.13868,-17.38086 0.002,-5.537852 -2.58075,-10.506936 -6.60547,-13.720703 -3.02031,-2.465363 -6.89534,-3.947266 -11.08789,-3.947266 -0.91153,0 -1.7638,0.211766 -2.63868,0.347656 0.94126,-2.047471 1.8379,-4.318534 1.8379,-6.724609 0,-9.223168 -7.54711,-16.497789 -16.68555,-16.748047 -3.84838,-0.105309 -6.93921,1.255369 -9.10938,2.621094 C 108.16556,54.166057 99.168371,46.519531 88.421875,46.519531 Z m 0,4.789063 c 9.720015,0 17.541015,7.824609 17.541015,17.542968 0,4.42e-4 0.21472,0.995811 0.21484,0.996094 1.3e-4,2.84e-4 1.12475,1.156123 1.125,1.15625 2.6e-4,1.27e-4 1.23009,0.23831 1.23047,0.238281 3.9e-4,-2.8e-5 0.62449,-0.130676 0.625,-0.130859 0.001,-3.65e-4 0.39302,-0.178033 0.48243,-0.234375 0.0894,-0.05634 0.14198,-0.09514 0.18359,-0.126953 0.16644,-0.127258 0.18918,-0.15808 0.22851,-0.195313 0.0787,-0.07446 0.12227,-0.120963 0.1836,-0.18164 0.12265,-0.121355 0.28405,-0.278067 0.5,-0.47461 0.4319,-0.393085 1.07181,-0.927773 1.88476,-1.455078 1.62592,-1.054608 3.889,-2.055605 6.63477,-1.980468 6.70955,0.183742 12.02539,5.328121 12.02539,11.960937 0,1.227287 -0.8813,3.816187 -1.875,5.851563 -0.9937,2.035375 -1.98242,3.585937 -1.98242,3.585937 a 2.3952395,2.3952395 0 0 0 3.19336,3.376953 c 1.85683,-1.047529 3.97639,-1.648437 6.25586,-1.648437 3.0749,0 5.87123,1.077294 8.07226,2.878906 a 2.3952395,2.3952395 0 0 0 0.0234,0.01953 c 2.93279,2.340334 4.80833,5.924362 4.80664,9.978519 0,6.48067 -4.78765,11.78748 -11.00781,12.63867 a 2.3952395,2.3952395 0 0 0 -0.0117,0.002 c -1.85228,0.2624 -3.66979,0.73411 -5.41602,1.40625 -4.29062,1.61641 -8.68696,2.95984 -13.13671,4.07031 a 2.3952395,2.3952395 0 0 0 -1.80274,2.08399 c -0.19379,1.91732 -0.76309,3.71687 -1.63476,5.33594 a 2.3952395,2.3952395 0 0 0 -0.004,0.008 c -2.0527,3.85104 -2.97416,8.20597 -2.65625,12.55859 l -0.006,-0.19531 c -0.003,0.36774 0.008,1.55285 0.008,1.73047 0,1.83108 -0.6559,3.06551 -1.77929,4.01562 -1.1234,0.95012 -2.80818,1.5625 -4.80274,1.5625 -3.65871,0 -6.57617,-2.91534 -6.57617,-6.57812 0,-2.93964 -1.468777,-5.9008 -4.242189,-7.6211 a 2.3952395,2.3952395 0 0 0 -0.02148,-0.0137 c -0.383092,-0.23173 -0.754242,-0.48155 -1.113281,-0.74804 a 2.3952395,2.3952395 0 0 0 -0.01758,-0.0117 c -2.192197,-1.59721 -3.917621,-3.8055 -4.927734,-6.36719 a 2.3952395,2.3952395 0 0 0 -2.306641,-1.51562 C 63.1158,125.66269 39.978335,121.2187 28.439453,118.10938 l -0.0293,-0.008 c -3.08498,-0.87312 -6.209676,-1.59888 -9.365234,-2.17383 l 0.03711,0.006 c -2.546596,-0.50492 -4.833073,-1.75186 -6.615234,-3.50781 a 2.3952395,2.3952395 0 0 0 -0.03125,-0.0293 c -2.4475308,-2.327 -3.966797,-5.59514 -3.966797,-9.25 0,-6.97056 5.517434,-12.587511 12.443359,-12.753902 a 2.3952395,2.3952395 0 0 0 1.478516,-4.230469 c -1.080975,-0.904932 -1.536011,-1.991295 -1.580078,-3.443359 -0.04407,-1.452064 0.438329,-3.231923 1.427734,-4.935547 1.97881,-3.407248 5.847671,-6.335467 10.263672,-6.541016 4.083998,-0.190038 9.685547,4.087891 9.685547,4.087891 a 2.3952395,2.3952395 0 0 0 3.697266,-0.763672 c 2.060311,-4.163945 6.368207,-6.803366 11.570312,-7.111328 3.045232,-0.180156 5.35368,0.698417 6.96875,1.59375 0.807535,0.447667 1.423486,0.893789 1.873047,1.234375 0.224781,0.170293 0.385161,0.301003 0.625,0.46875 0.119919,0.08387 0.169151,0.182195 0.697266,0.373047 0.264057,0.09543 0.772784,0.383598 1.78125,-0.04297 0.504233,-0.213283 1.005853,-0.706708 1.228515,-1.162109 0.222662,-0.455401 0.246094,-0.818559 0.246094,-1.06836 0,-9.717489 7.827978,-17.542968 17.546875,-17.542968 z"
     id="path1838" /></g>
        </g>
    </g>
</svg>
